<svg xmlns="http://www.w3.org/2000/svg" width="4" height="10" viewBox="0 0 4 10" fill="none">
<path d="M1.936 9.112C1.60533 9.112 1.328 9 1.104 8.776C0.88 8.552 0.768 8.27467 0.768 7.944C0.768 7.61333 0.88 7.336 1.104 7.112C1.328 6.888 1.60533 6.776 1.936 6.776C2.256 6.776 2.528 6.888 2.752 7.112C2.976 7.336 3.088 7.61333 3.088 7.944C3.088 8.27467 2.976 8.552 2.752 8.776C2.528 9 2.256 9.112 1.936 9.112ZM1.936 2.392C1.60533 2.392 1.328 2.28 1.104 2.056C0.88 1.832 0.768 1.55467 0.768 1.224C0.768 0.893333 0.88 0.616 1.104 0.391999C1.328 0.168 1.60533 0.0559998 1.936 0.0559998C2.256 0.0559998 2.528 0.168 2.752 0.391999C2.976 0.616 3.088 0.893333 3.088 1.224C3.088 1.55467 2.976 1.832 2.752 2.056C2.528 2.28 2.256 2.392 1.936 2.392Z" fill="#9F9F9F"/>
</svg>